<svg width="65" height="40" viewBox="0 0 65 40" fill="none" xmlns="http://www.w3.org/2000/svg">
<g clip-path="url(#clip0)">
<path d="M5.57505 29.1V34H4.44105V31.991H2.21505V34H1.08105V29.1H2.21505V31.032H4.44105V29.1H5.57505Z" fill="#367EBE"/>
<path d="M10.3074 34.084C9.79871 34.084 9.33904 33.9743 8.92837 33.755C8.52237 33.5357 8.20271 33.2347 7.96937 32.852C7.74071 32.4647 7.62637 32.0307 7.62637 31.55C7.62637 31.0693 7.74071 30.6377 7.96937 30.255C8.20271 29.8677 8.52237 29.5643 8.92837 29.345C9.33904 29.1257 9.79871 29.016 10.3074 29.016C10.816 29.016 11.2734 29.1257 11.6794 29.345C12.0854 29.5643 12.405 29.8677 12.6384 30.255C12.8717 30.6377 12.9884 31.0693 12.9884 31.55C12.9884 32.0307 12.8717 32.4647 12.6384 32.852C12.405 33.2347 12.0854 33.5357 11.6794 33.755C11.2734 33.9743 10.816 34.084 10.3074 34.084ZM10.3074 33.118C10.5967 33.118 10.858 33.0527 11.0914 32.922C11.3247 32.7867 11.5067 32.6 11.6374 32.362C11.7727 32.124 11.8404 31.8533 11.8404 31.55C11.8404 31.2467 11.7727 30.976 11.6374 30.738C11.5067 30.5 11.3247 30.3157 11.0914 30.185C10.858 30.0497 10.5967 29.982 10.3074 29.982C10.018 29.982 9.75671 30.0497 9.52337 30.185C9.29004 30.3157 9.10571 30.5 8.97038 30.738C8.83971 30.976 8.77437 31.2467 8.77437 31.55C8.77437 31.8533 8.83971 32.124 8.97038 32.362C9.10571 32.6 9.29004 32.7867 9.52337 32.922C9.75671 33.0527 10.018 33.118 10.3074 33.118Z" fill="#367EBE"/>
<path d="M15.9873 30.024H14.4193V29.1H18.6893V30.024H17.1213V34H15.9873V30.024Z" fill="#367EBE"/>
<path d="M24.2934 33.09V34H20.4994V29.1H24.2024V30.01H21.6264V31.074H23.9014V31.956H21.6264V33.09H24.2934Z" fill="#367EBE"/>
<path d="M26.3957 29.1H27.5297V33.076H29.9867V34H26.3957V29.1Z" fill="#367EBE"/>
<path d="M36.0177 30.024H34.4497V29.1H38.7197V30.024H37.1517V34H36.0177V30.024Z" fill="#367EBE"/>
<path d="M44.3239 33.09V34H40.5299V29.1H44.2329V30.01H41.6569V31.074H43.9319V31.956H41.6569V33.09H44.3239Z" fill="#367EBE"/>
<path d="M49.5482 34L48.6032 32.635H47.5602V34H46.4262V29.1H48.5472C48.9812 29.1 49.3568 29.1723 49.6742 29.317C49.9962 29.4617 50.2435 29.667 50.4162 29.933C50.5888 30.199 50.6752 30.514 50.6752 30.878C50.6752 31.242 50.5865 31.557 50.4092 31.823C50.2365 32.0843 49.9892 32.285 49.6672 32.425L50.7662 34H49.5482ZM49.5272 30.878C49.5272 30.6027 49.4385 30.3927 49.2612 30.248C49.0838 30.0987 48.8248 30.024 48.4842 30.024H47.5602V31.732H48.4842C48.8248 31.732 49.0838 31.6573 49.2612 31.508C49.4385 31.3587 49.5272 31.1487 49.5272 30.878Z" fill="#367EBE"/>
<path d="M55.8956 34L54.9506 32.635H53.9076V34H52.7736V29.1H54.8946C55.3286 29.1 55.7043 29.1723 56.0216 29.317C56.3436 29.4617 56.591 29.667 56.7636 29.933C56.9363 30.199 57.0226 30.514 57.0226 30.878C57.0226 31.242 56.934 31.557 56.7566 31.823C56.584 32.0843 56.3366 32.285 56.0146 32.425L57.1136 34H55.8956ZM55.8746 30.878C55.8746 30.6027 55.786 30.3927 55.6086 30.248C55.4313 30.0987 55.1723 30.024 54.8316 30.024H53.9076V31.732H54.8316C55.1723 31.732 55.4313 31.6573 55.6086 31.508C55.786 31.3587 55.8746 31.1487 55.8746 30.878Z" fill="#367EBE"/>
<path d="M62.3481 32.95H60.0731L59.6391 34H58.4771L60.6611 29.1H61.7811L63.9721 34H62.7821L62.3481 32.95ZM61.9911 32.089L61.2141 30.213L60.4371 32.089H61.9911Z" fill="#367EBE"/>
<path d="M2.13605 39.036C1.99405 39.036 1.86305 39.01 1.74305 38.958C1.62505 38.904 1.52805 38.828 1.45205 38.73L1.72205 38.406C1.83605 38.56 1.96605 38.637 2.11205 38.637C2.31005 38.637 2.40905 38.521 2.40905 38.289V37.29H1.67105V36.9H2.89205V38.262C2.89205 38.52 2.82805 38.714 2.70005 38.844C2.57205 38.972 2.38405 39.036 2.13605 39.036Z" fill="#367EBE"/>
<path d="M8.09116 38.55H7.11616L6.93016 39H6.43216L7.36816 36.9H7.84816L8.78716 39H8.27716L8.09116 38.55ZM7.93816 38.181L7.60516 37.377L7.27216 38.181H7.93816Z" fill="#367EBE"/>
<path d="M13.3607 39.036C13.1467 39.036 12.9527 38.99 12.7787 38.898C12.6067 38.804 12.4707 38.675 12.3707 38.511C12.2727 38.345 12.2237 38.158 12.2237 37.95C12.2237 37.742 12.2727 37.556 12.3707 37.392C12.4707 37.226 12.6067 37.097 12.7787 37.005C12.9527 36.911 13.1477 36.864 13.3637 36.864C13.5457 36.864 13.7097 36.896 13.8557 36.96C14.0037 37.024 14.1277 37.116 14.2277 37.236L13.9157 37.524C13.7737 37.36 13.5977 37.278 13.3877 37.278C13.2577 37.278 13.1417 37.307 13.0397 37.365C12.9377 37.421 12.8577 37.5 12.7997 37.602C12.7437 37.704 12.7157 37.82 12.7157 37.95C12.7157 38.08 12.7437 38.196 12.7997 38.298C12.8577 38.4 12.9377 38.48 13.0397 38.538C13.1417 38.594 13.2577 38.622 13.3877 38.622C13.5977 38.622 13.7737 38.539 13.9157 38.373L14.2277 38.661C14.1277 38.783 14.0037 38.876 13.8557 38.94C13.7077 39.004 13.5427 39.036 13.3607 39.036Z" fill="#367EBE"/>
<path d="M18.7009 38.175L18.4189 38.469V39H17.9359V36.9H18.4189V37.881L19.3489 36.9H19.8889L19.0189 37.836L19.9399 39H19.3729L18.7009 38.175Z" fill="#367EBE"/>
<path d="M24.1827 39.036C24.0167 39.036 23.8557 39.014 23.6997 38.97C23.5457 38.924 23.4217 38.865 23.3277 38.793L23.4927 38.427C23.5827 38.493 23.6897 38.546 23.8137 38.586C23.9377 38.626 24.0617 38.646 24.1857 38.646C24.3237 38.646 24.4257 38.626 24.4917 38.586C24.5577 38.544 24.5907 38.489 24.5907 38.421C24.5907 38.371 24.5707 38.33 24.5307 38.298C24.4927 38.264 24.4427 38.237 24.3807 38.217C24.3207 38.197 24.2387 38.175 24.1347 38.151C23.9747 38.113 23.8437 38.075 23.7417 38.037C23.6397 37.999 23.5517 37.938 23.4777 37.854C23.4057 37.77 23.3697 37.658 23.3697 37.518C23.3697 37.396 23.4027 37.286 23.4687 37.188C23.5347 37.088 23.6337 37.009 23.7657 36.951C23.8997 36.893 24.0627 36.864 24.2547 36.864C24.3887 36.864 24.5197 36.88 24.6477 36.912C24.7757 36.944 24.8877 36.99 24.9837 37.05L24.8337 37.419C24.6397 37.309 24.4457 37.254 24.2517 37.254C24.1157 37.254 24.0147 37.276 23.9487 37.32C23.8847 37.364 23.8527 37.422 23.8527 37.494C23.8527 37.566 23.8897 37.62 23.9637 37.656C24.0397 37.69 24.1547 37.724 24.3087 37.758C24.4687 37.796 24.5997 37.834 24.7017 37.872C24.8037 37.91 24.8907 37.97 24.9627 38.052C25.0367 38.134 25.0737 38.245 25.0737 38.385C25.0737 38.505 25.0397 38.615 24.9717 38.715C24.9057 38.813 24.8057 38.891 24.6717 38.949C24.5377 39.007 24.3747 39.036 24.1827 39.036Z" fill="#367EBE"/>
<path d="M29.8028 39.036C29.5848 39.036 29.3878 38.989 29.2118 38.895C29.0378 38.801 28.9008 38.672 28.8008 38.508C28.7028 38.342 28.6538 38.156 28.6538 37.95C28.6538 37.744 28.7028 37.559 28.8008 37.395C28.9008 37.229 29.0378 37.099 29.2118 37.005C29.3878 36.911 29.5848 36.864 29.8028 36.864C30.0208 36.864 30.2168 36.911 30.3908 37.005C30.5648 37.099 30.7018 37.229 30.8018 37.395C30.9018 37.559 30.9518 37.744 30.9518 37.95C30.9518 38.156 30.9018 38.342 30.8018 38.508C30.7018 38.672 30.5648 38.801 30.3908 38.895C30.2168 38.989 30.0208 39.036 29.8028 39.036ZM29.8028 38.622C29.9268 38.622 30.0388 38.594 30.1388 38.538C30.2388 38.48 30.3168 38.4 30.3728 38.298C30.4308 38.196 30.4598 38.08 30.4598 37.95C30.4598 37.82 30.4308 37.704 30.3728 37.602C30.3168 37.5 30.2388 37.421 30.1388 37.365C30.0388 37.307 29.9268 37.278 29.8028 37.278C29.6788 37.278 29.5668 37.307 29.4668 37.365C29.3668 37.421 29.2878 37.5 29.2298 37.602C29.1738 37.704 29.1458 37.82 29.1458 37.95C29.1458 38.08 29.1738 38.196 29.2298 38.298C29.2878 38.4 29.3668 38.48 29.4668 38.538C29.5668 38.594 29.6788 38.622 29.8028 38.622Z" fill="#367EBE"/>
<path d="M36.623 36.9V39H36.224L35.177 37.725V39H34.697V36.9H35.099L36.143 38.175V36.9H36.623Z" fill="#367EBE"/>
<path d="M46.6555 36.9V39H46.1695V38.139H45.2155V39H44.7295V36.9H45.2155V37.728H46.1695V36.9H46.6555Z" fill="#367EBE"/>
<path d="M51.5493 39.036C51.3313 39.036 51.1343 38.989 50.9583 38.895C50.7843 38.801 50.6473 38.672 50.5473 38.508C50.4493 38.342 50.4003 38.156 50.4003 37.95C50.4003 37.744 50.4493 37.559 50.5473 37.395C50.6473 37.229 50.7843 37.099 50.9583 37.005C51.1343 36.911 51.3313 36.864 51.5493 36.864C51.7673 36.864 51.9633 36.911 52.1373 37.005C52.3113 37.099 52.4483 37.229 52.5483 37.395C52.6483 37.559 52.6983 37.744 52.6983 37.95C52.6983 38.156 52.6483 38.342 52.5483 38.508C52.4483 38.672 52.3113 38.801 52.1373 38.895C51.9633 38.989 51.7673 39.036 51.5493 39.036ZM51.5493 38.622C51.6733 38.622 51.7853 38.594 51.8853 38.538C51.9853 38.48 52.0633 38.4 52.1193 38.298C52.1773 38.196 52.2063 38.08 52.2063 37.95C52.2063 37.82 52.1773 37.704 52.1193 37.602C52.0633 37.5 51.9853 37.421 51.8853 37.365C51.7853 37.307 51.6733 37.278 51.5493 37.278C51.4253 37.278 51.3133 37.307 51.2133 37.365C51.1133 37.421 51.0343 37.5 50.9763 37.602C50.9203 37.704 50.8923 37.82 50.8923 37.95C50.8923 38.08 50.9203 38.196 50.9763 38.298C51.0343 38.4 51.1133 38.48 51.2133 38.538C51.3133 38.594 51.4253 38.622 51.5493 38.622Z" fill="#367EBE"/>
<path d="M56.4436 36.9H56.9296V38.604H57.9826V39H56.4436V36.9Z" fill="#367EBE"/>
<path d="M63.2601 38.61V39H61.6341V36.9H63.2211V37.29H62.1171V37.746H63.0921V38.124H62.1171V38.61H63.2601Z" fill="#367EBE"/>
<path d="M7.5 16.5L1 22.5L8 17.5L13.5 20.7L7.5 16.5Z" fill="#367EBE"/>
<path d="M18.5 8.5L9.5 18L18.5 10L36.5 22L18.5 8.5Z" fill="#367EBE"/>
<path d="M30.5 2L22 11L31 4L64 23.5L30.5 2Z" fill="#367EBE"/>
<path d="M6.5 18.5L4.14185 20.7985L6.124 18L6.5 18.5Z" fill="#367EBE"/>
<path d="M16 12.2222L12.5 16.5L15.4822 12L16 12.2222Z" fill="#367EBE"/>
<path d="M18.8628 9.5421L16.7503 12L16 13L18.2119 9.08107L18.8628 9.5421Z" fill="#367EBE"/>
<path d="M28.4285 6.00002L24.7166 9.86069L27.7776 5.53899L28.4285 6.00002Z" fill="#367EBE"/>
<path d="M31.6509 3.74228L27.9389 7.60295L31 3.28125L31.6509 3.74228Z" fill="#367EBE"/>
<path d="M44.2119 13.3217L41.1508 8.99996L40.6163 9.37859L44.2119 13.3217Z" fill="#367EBE"/>
<path d="M46.4649 14.1544L43.9868 10.6557L43.3359 11.1167L46.4649 14.1544Z" fill="#367EBE"/>
</g>
<defs>
<clipPath id="clip0">
<rect width="64" height="40" fill="white" transform="translate(0.5)"/>
</clipPath>
</defs>
</svg>
