<svg width="25" height="24" viewBox="0 0 25 24" fill="none" xmlns="http://www.w3.org/2000/svg">
<g clip-path="url(#clip0)">
<path d="M21.9166 6.5V3.5H20.3541V6.5H17.2291V8H20.3541V11H21.9166V8H25.0416V6.5H21.9166Z" fill="#EDEDED"/>
<path d="M9.11458 10.3V14.2H14.2716C13.5188 16.4698 11.4917 18.1 9.11458 18.1C6.09948 18.1 3.64583 15.4753 3.64583 12.25C3.64583 9.0247 6.09948 6.4 9.11458 6.4C10.4216 6.4 11.6794 6.90115 12.6565 7.8118L15.0518 4.8712C13.4112 3.3424 11.3039 2.5 9.11458 2.5C4.0888 2.5 0 6.87385 0 12.25C0 17.6262 4.0888 22 9.11458 22C14.1404 22 18.2292 17.6262 18.2292 12.25V10.3H9.11458Z" fill="#EDEDED"/>
</g>
<defs>
<clipPath id="clip0">
<rect width="25" height="24" fill="white"/>
</clipPath>
</defs>
</svg>
