<svg width="25" height="24" viewBox="0 0 25 24" fill="none" xmlns="http://www.w3.org/2000/svg">
<path d="M15.8641 4.4044C15.1063 4.40425 14.3787 4.76257 13.838 5.40227C13.2972 6.04196 12.9865 6.91189 12.9726 7.82486L12.9447 9.71711C12.9431 9.81871 12.9236 9.91874 12.8877 10.0106C12.8517 10.1026 12.8 10.1843 12.736 10.2504C12.6719 10.3165 12.597 10.3656 12.5162 10.3944C12.4353 10.4232 12.3503 10.4311 12.2667 10.4175L10.7103 10.1628C8.66235 9.82644 6.70013 8.68989 4.81769 6.80005C4.22145 10.7768 5.38601 13.5316 8.19074 15.657L9.9326 16.9761C10.0154 17.0388 10.0841 17.125 10.1329 17.2271C10.1816 17.3292 10.2088 17.4441 10.2122 17.5618C10.2155 17.6795 10.1949 17.7964 10.152 17.9023C10.1092 18.0082 10.0455 18.0998 9.9665 18.1692L8.37918 19.5664C9.3234 19.6373 10.2198 19.5868 10.9636 19.409C15.6677 18.2773 18.7955 14.0122 18.7955 6.97666C18.7955 6.40237 17.7864 4.4044 15.8641 4.4044ZM10.9785 7.78041C10.9959 6.6223 11.2965 5.4961 11.8425 4.54283C12.3886 3.58956 13.1559 2.85158 14.0484 2.42128C14.9409 1.99099 15.9188 1.88751 16.8599 2.12379C17.801 2.36007 18.6633 2.92562 19.3389 3.74962C20.0478 3.74362 20.651 3.95987 22 2.9747C21.666 4.94504 21.5015 5.80046 20.7896 6.97666C20.7896 16.158 16.1064 20.6225 11.3544 21.765C8.09602 22.5484 3.35799 21.2616 2 19.5532C2.69196 19.4883 5.50366 19.1243 7.12887 17.691C5.75393 16.5989 0.281071 12.7183 3.87746 2.28508C5.56548 4.6603 7.27743 6.27743 9.01231 7.13524C10.1669 7.70592 10.4501 7.69391 10.9795 7.78161L10.9785 7.78041Z" fill="#EDEDED"/>
</svg>
